HIERARCHY
ROOT Hips
{
  OFFSET 5.84602e-005 68.8428 3.50346
  CHANNELS 6 Xposition Yposition Zposition Zrotation Xrotation Yrotation
  JOINT Spine
  {
    OFFSET 0 8.597 -4.6522
    CHANNELS 3 Zrotation Xrotation Yrotation
    JOINT Spine1
    {
      OFFSET 0 7.8454 0.4098
      CHANNELS 3 Zrotation Xrotation Yrotation
      JOINT Spine2
      {
        OFFSET 0 9.7078 -2.1609
        CHANNELS 3 Zrotation Xrotation Yrotation
        JOINT Neck
        {
          OFFSET 0 21.8761 -0.4549
          CHANNELS 3 Zrotation Xrotation Yrotation
          JOINT Head
          {
            OFFSET 0 12.3537 3.3602
            CHANNELS 3 Zrotation Xrotation Yrotation
            End Site
            {
              OFFSET 0.0001 18.9506 0.5657
            }
          }
        }
        JOINT LeftShoulder
        {
          OFFSET 2.2086 21.1115 7.2329
          CHANNELS 3 Zrotation Xrotation Yrotation
          JOINT LeftArm
          {
            OFFSET 13.1193 3.0282 -4.8998
            CHANNELS 3 Zrotation Xrotation Yrotation
            JOINT LeftForeArm
            {
              OFFSET 27.4081 -0.0973053 -0.2375
              CHANNELS 3 Zrotation Xrotation Yrotation
              JOINT LeftHand
              {
                OFFSET 22.8641 0.0662994 -0.1369
                CHANNELS 3 Zrotation Xrotation Yrotation
                JOINT LeftHandIndex1
                {
                  OFFSET 8.8614 0.775009 2.4612
                  CHANNELS 3 Zrotation Xrotation Yrotation
                  JOINT LeftHandIndex2
                  {
                    OFFSET 3.3146 -0.808304 0.5841
                    CHANNELS 3 Zrotation Xrotation Yrotation
                    JOINT LeftHandIndex3
                    {
                      OFFSET 2.2628 -0.552002 0.3989
                      CHANNELS 3 Zrotation Xrotation Yrotation
                      End Site
                      {
                        OFFSET 1.6102 -0.4807 0.2612
                      }
                    }
                  }
                }
                JOINT LeftHandMiddle1
                {
                  OFFSET 8.9937 0.895004 0.2143
                  CHANNELS 3 Zrotation Xrotation Yrotation
                  JOINT LeftHandMiddle2
                  {
                    OFFSET 4.0984 0.0113983 -0.0242
                    CHANNELS 3 Zrotation Xrotation Yrotation
                    JOINT LeftHandMiddle3
                    {
                      OFFSET 2.2716 0.00689697 -0.0138001
                      CHANNELS 3 Zrotation Xrotation Yrotation
                      End Site
                      {
                        OFFSET 2.0404 -0.1441 0.0027
                      }
                    }
                  }
                }
                JOINT LeftHandRing1
                {
                  OFFSET 8.5234 0.597198 -2.0164
                  CHANNELS 3 Zrotation Xrotation Yrotation
                  JOINT LeftHandRing2
                  {
                    OFFSET 3.7188 -0.188293 -0.2328
                    CHANNELS 3 Zrotation Xrotation Yrotation
                    JOINT LeftHandRing3
                    {
                      OFFSET 2.1191 -0.106598 -0.1332
                      CHANNELS 3 Zrotation Xrotation Yrotation
                      End Site
                      {
                        OFFSET 1.8737 -0.2304 -0.0886
                      }
                    }
                  }
                }
                JOINT LeftHandPinky1
                {
                  OFFSET 7.9094 -0.601089 -3.4825
                  CHANNELS 3 Zrotation Xrotation Yrotation
                  JOINT LeftHandPinky2
                  {
                    OFFSET 2.2874 -0.477005 -0.6314
                    CHANNELS 3 Zrotation Xrotation Yrotation
                    JOINT LeftHandPinky3
                    {
                      OFFSET 1.6774 -0.349396 -0.4633
                      CHANNELS 3 Zrotation Xrotation Yrotation
                      End Site
                      {
                        OFFSET 1.4888 -0.4091 -0.3416
                      }
                    }
                  }
                }
                JOINT LeftHandThumb1
                {
                  OFFSET 1.833 -1.3875 1.3896
                  CHANNELS 3 Zrotation Xrotation Yrotation
                  JOINT LeftHandThumb2
                  {
                    OFFSET 3.4129 -1.121 2.5732
                    CHANNELS 3 Zrotation Xrotation Yrotation
                    JOINT LeftHandThumb3
                    {
                      OFFSET 2.2474 -0.804199 1.6192
                      CHANNELS 3 Zrotation Xrotation Yrotation
                      End Site
                      {
                        OFFSET 1.6527 -0.5689 1.1317
                      }
                    }
                  }
                }
              }
            }
          }
        }
        JOINT RightShoulder
        {
          OFFSET -2.2086 21.1115 7.2329
          CHANNELS 3 Zrotation Xrotation Yrotation
          JOINT RightArm
          {
            OFFSET -13.1216 3.0287 -4.9007
            CHANNELS 3 Zrotation Xrotation Yrotation
            JOINT RightForeArm
            {
              OFFSET -27.4081 -0.0973053 -0.2375
              CHANNELS 3 Zrotation Xrotation Yrotation
              JOINT RightHand
              {
                OFFSET -22.8641 0.0664063 -0.1369
                CHANNELS 3 Zrotation Xrotation Yrotation
                JOINT RightHandIndex1
                {
                  OFFSET -8.8614 0.774994 2.4612
                  CHANNELS 3 Zrotation Xrotation Yrotation
                  JOINT RightHandIndex2
                  {
                    OFFSET -3.3146 -0.808304 0.5841
                    CHANNELS 3 Zrotation Xrotation Yrotation
                    JOINT RightHandIndex3
                    {
                      OFFSET -2.2628 -0.552002 0.3989
                      CHANNELS 3 Zrotation Xrotation Yrotation
                      End Site
                      {
                        OFFSET -1.6102 -0.4807 0.2612
                      }
                    }
                  }
                }
                JOINT RightHandMiddle1
                {
                  OFFSET -8.9937 0.894989 0.2143
                  CHANNELS 3 Zrotation Xrotation Yrotation
                  JOINT RightHandMiddle2
                  {
                    OFFSET -4.0984 0.0113983 -0.0242
                    CHANNELS 3 Zrotation Xrotation Yrotation
                    JOINT RightHandMiddle3
                    {
                      OFFSET -2.2716 0.00691223 -0.0138001
                      CHANNELS 3 Zrotation Xrotation Yrotation
                      End Site
                      {
                        OFFSET -2.0404 -0.1441 0.0027
                      }
                    }
                  }
                }
                JOINT RightHandRing1
                {
                  OFFSET -8.5234 0.597198 -2.0164
                  CHANNELS 3 Zrotation Xrotation Yrotation
                  JOINT RightHandRing2
                  {
                    OFFSET -3.7188 -0.188309 -0.2328
                    CHANNELS 3 Zrotation Xrotation Yrotation
                    JOINT RightHandRing3
                    {
                      OFFSET -2.1191 -0.106598 -0.1332
                      CHANNELS 3 Zrotation Xrotation Yrotation
                      End Site
                      {
                        OFFSET -1.8737 -0.2304 -0.0886
                      }
                    }
                  }
                }
                JOINT RightHandPinky1
                {
                  OFFSET -7.9094 -0.601105 -3.4825
                  CHANNELS 3 Zrotation Xrotation Yrotation
                  JOINT RightHandPinky2
                  {
                    OFFSET -2.2874 -0.477005 -0.6314
                    CHANNELS 3 Zrotation Xrotation Yrotation
                    JOINT RightHandPinky3
                    {
                      OFFSET -1.6774 -0.349396 -0.4633
                      CHANNELS 3 Zrotation Xrotation Yrotation
                      End Site
                      {
                        OFFSET -1.4888 -0.4091 -0.3416
                      }
                    }
                  }
                }
                JOINT RightHandThumb1
                {
                  OFFSET -1.833 -1.38751 1.3896
                  CHANNELS 3 Zrotation Xrotation Yrotation
                  JOINT RightHandThumb2
                  {
                    OFFSET -3.41299 -1.12099 2.5732
                    CHANNELS 3 Zrotation Xrotation Yrotation
                    JOINT RightHandThumb3
                    {
                      OFFSET -2.24741 -0.804108 1.6192
                      CHANNELS 3 Zrotation Xrotation Yrotation
                      End Site
                      {
                        OFFSET -1.6527 -0.5689 1.1317
                      }
                    }
                  }
                }
              }
            }
          }
        }
      }
    }
  }
  JOINT RightUpLeg
  {
    OFFSET -9.1966 3.8861 -0.7581
    CHANNELS 3 Zrotation Xrotation Yrotation
    JOINT RightLeg
    {
      OFFSET -0.7359 -41.0265 0
      CHANNELS 3 Zrotation Xrotation Yrotation
      JOINT RightFoot
      {
        OFFSET 0 -40.2855 0
        CHANNELS 3 Zrotation Xrotation Yrotation
        JOINT RightToeBase
        {
          OFFSET 0 -5.6122 11.7359
          CHANNELS 3 Zrotation Xrotation Yrotation
          End Site
          {
            OFFSET 0 0 7.8731
          }
        }
      }
    }
  }
  JOINT LeftUpLeg
  {
    OFFSET 9.1965 3.8864 -0.7581
    CHANNELS 3 Zrotation Xrotation Yrotation
    JOINT LeftLeg
    {
      OFFSET 0.7359 -41.0268 0
      CHANNELS 3 Zrotation Xrotation Yrotation
      JOINT LeftFoot
      {
        OFFSET 0 -40.2855 0
        CHANNELS 3 Zrotation Xrotation Yrotation
        JOINT LeftToeBase
        {
          OFFSET 0 -5.6122 11.7359
          CHANNELS 3 Zrotation Xrotation Yrotation
          End Site
          {
            OFFSET 0 0 7.8731
          }
        }
      }
    }
  }
}
MOTION
Frames:	5
Frame Time:	0.0333333
5.84602e-005 68.8428 3.50346 0 0 -0 0 0 -0 0 0 -0 0 0 -0 0 0 -0.00430691 -0 0 7.76503e-019 0 0 -0.00430691 -0 0 7.76503e-019 -0 0 7.76503e-019 -0 0 7.76503e-019 -0 0 7.76503e-019 -0 0 7.76503e-019 -0 0 7.76503e-019 -0 0 7.76503e-019 -0.0146107 -8.87604e-005 -2.63531e-007 3.17986e-019 0 1.55301e-018 -0 0 7.76503e-019 -0.0187548 -0.0011759 5.87955e-005 -1.94376e-018 -1.94126e-019 -1.55301e-018 -0 0 7.76503e-019 -0.0122981 -0.00325605 0.000675344 -9.18921e-019 0 7.76503e-019 -0 0 7.76503e-019 -0 0 7.76503e-019 -0 0 7.76503e-019 0 0 -0.00430691 -0 0 7.76503e-019 -0 0 7.76503e-019 -0 0 7.76503e-019 -0 0 7.76503e-019 -0 0 7.76503e-019 -0 0 7.76503e-019 -0 0 7.76503e-019 0.0149955 -9.10982e-005 2.87063e-007 4.63407e-018 3.63986e-020 7.76503e-019 -0 0 7.76503e-019 0.0189974 -0.00119111 -5.96513e-005 2.19371e-018 3.88251e-019 -7.76503e-019 -0 0 7.76503e-019 0.0122398 -0.0032405 -0.000673759 -2.55325e-018 1.55301e-018 2.32951e-018 -0 0 7.76503e-019 -0 0 7.76503e-019 -0 0 7.76503e-019 3.39842 1.33031 -0.0637918 -5.65207e-008 0.834868 -0.000436188 -3.39935 -2.16518 -0.0642563 -8.89002e-024 -1.18485e-023 -1.48106e-024 -3.39844 1.35642 0.0640283 -3.18788e-007 0.782166 -0.000588827 3.39931 -2.13858 0.0634662 1.1399e-023 0 -0 
42.2 -9.79931 53.9703 0 83.7908 -0 -0.337728 0.828068 -0.219189 -0.67239 1.65748 -0.433561 -0.67239 1.65746 -0.433561 0.0834557 1.76427 -46.753 -0.662403 -16.1529 -28.0405 -8.13 0.956877 -5.98376 -36.7355 -48.7105 -10.7994 36.7587 -18.0348 -47.7937 8.79591 -25.4717 -32.6949 -3.86217e-032 6.95746e-016 3.18055e-015 1.98785e-016 5.96354e-016 -0 3.97569e-016 3.97569e-016 3.18055e-015 -3.86217e-032 6.95746e-016 3.18055e-015 -0.0146117 -8.88506e-005 3.67609e-006 1.98785e-016 -2.98177e-016 -9.54166e-015 -3.86217e-032 6.95746e-016 3.18055e-015 -0.0187453 -0.00117544 6.55722e-005 -1.98785e-016 -9.93923e-017 -3.18055e-015 -3.86217e-032 6.95746e-016 3.18055e-015 -0.012284 -0.00325056 0.000680822 3.97569e-016 9.93923e-017 -0 -3.86217e-032 6.95746e-016 3.18055e-015 1.98785e-016 5.96354e-016 -0 3.97569e-016 3.97569e-016 3.18055e-015 52.819 -11.4968 -9.78242 49.7912 -41.8759 23.0019 -34.7137 -19.9977 39.4292 0.169212 -6.45193 34.4583 -7.95164e-008 5.60966e-009 -7.22841e-009 -2.65055e-008 1.86988e-009 -2.40947e-009 -2.65055e-008 1.86989e-009 -2.40946e-009 -7.95164e-008 5.60966e-009 -7.22841e-009 0.0150056 -9.26932e-005 -9.03569e-007 -2.65055e-008 1.86957e-009 -2.40969e-009 -7.95164e-008 5.60966e-009 -7.22841e-009 0.0189921 -0.00119112 -5.94013e-005 -1.32528e-008 9.34741e-010 -1.20475e-009 -7.95164e-008 5.60966e-009 -7.22841e-009 0.0122795 -0.00325211 -0.000677038 -4.28105e-008 -3.83165e-007 -1.12093e-007 -7.95164e-008 5.60966e-009 -7.22841e-009 -2.65055e-008 1.86988e-009 -2.40947e-009 -2.65055e-008 1.86989e-009 -2.40946e-009 -4.63911 5.79041 -46.5233 7.77616 17.792 -23.4004 -4.59791 46.7493 -2.71968 1.59028e-015 6.36111e-015 2.38542e-015 1.57042 11.3534 49.3763 -5.12876 3.04051 22.0686 7.71575 43.8403 -6.35155 2.13945e-006 1.13803e-007 5.76749e-006 
39.7182 -5.60482 50.8847 0 78.3326 -0 -0.341763 1.19927 -0.208692 -0.679376 2.39973 -0.410359 -0.679376 2.39977 -0.410359 -0.00294841 0.773741 -44.0016 -0.606754 -15.7168 -27.2869 -6.90542 2.45606 -5.7941 -33.8719 -45.9293 -10.29 35.4448 -17.7836 -44.7822 11.5969 -26.2952 -28.7439 1.98785e-016 -2.98177e-016 -3.18055e-015 3.97569e-016 -2.98177e-016 -3.18055e-015 1.98785e-016 -2.98177e-016 -3.18055e-015 1.98785e-016 -2.98177e-016 -3.18055e-015 -0.0146106 -8.87184e-005 -3.83408e-007 -3.97569e-016 9.93923e-017 -1.27222e-014 1.98785e-016 -2.98177e-016 -3.18055e-015 -0.0187554 -0.00117585 6.30084e-005 3.97569e-016 1.98785e-016 6.36111e-015 1.98785e-016 -2.98177e-016 -3.18055e-015 -0.0122648 -0.0032473 0.000673872 -1.98785e-016 -3.97569e-016 -3.18055e-015 1.98785e-016 -2.98177e-016 -3.18055e-015 3.97569e-016 -2.98177e-016 -3.18055e-015 1.98785e-016 -2.98177e-016 -3.18055e-015 49.5272 -11.3855 -6.73685 43.9797 -39.5393 18.8373 -33.0005 -18.8953 36.5713 -1.36994 -7.81977 32.067 -8.82781e-032 3.18055e-015 1.59028e-015 -8.82781e-032 3.18055e-015 1.59028e-015 -1.98785e-016 3.18055e-015 -0 -8.82781e-032 3.18055e-015 1.59028e-015 0.0149943 -9.16675e-005 -6.9542e-007 3.97569e-016 3.97569e-015 3.18055e-015 -8.82781e-032 3.18055e-015 1.59028e-015 0.0190043 -0.00119194 -5.89351e-005 9.93923e-016 -2.38542e-015 -1.59028e-015 -8.82781e-032 3.18055e-015 1.59028e-015 0.0122739 -0.00324943 -0.000675969 -1.19271e-015 7.95139e-016 -0 -8.82781e-032 3.18055e-015 1.59028e-015 -8.82781e-032 3.18055e-015 1.59028e-015 -1.98785e-016 3.18055e-015 -0 -4.76097 6.70366 -45.5402 7.04055 17.2903 -22.0794 -6.94072 43.4703 0.289899 9.54166e-015 6.36111e-015 2.78299e-015 2.04853 12.0199 46.6811 -5.15438 3.30338 20.8148 7.43121 40.8471 -6.13212 3.78008e-006 -6.11884e-006 3.19794e-006 
39.7187 -5.6606 50.9273 0 77.8326 -0 -0.369911 1.60199 -0.204336 -0.734532 3.20524 -0.39855 -0.734532 3.20522 -0.39855 -0.00275729 -0.142682 -44.0015 -1.0248 -15.9901 -28.2444 -6.18886 3.92556 -5.96723 -33.8947 -45.9418 -10.9122 35.4359 -17.776 -44.7621 14.0199 -28.0081 -27.0224 -1.98785e-016 -6.95746e-016 -6.36111e-015 1.98785e-016 -2.98177e-016 -6.36111e-015 -3.97569e-016 -2.98177e-016 -3.18055e-015 -1.98785e-016 -6.95746e-016 -6.36111e-015 -0.0146178 -8.87474e-005 7.88253e-007 2.75869e-032 -4.96962e-016 3.18055e-015 -1.98785e-016 -6.95746e-016 -6.36111e-015 -0.0187573 -0.00117611 5.53686e-005 2.20695e-032 3.97569e-016 -3.18055e-015 -1.98785e-016 -6.95746e-016 -6.36111e-015 -0.0122644 -0.00324704 0.00067883 -1.98785e-016 -6.95746e-016 -0 -1.98785e-016 -6.95746e-016 -6.36111e-015 1.98785e-016 -2.98177e-016 -6.36111e-015 -3.97569e-016 -2.98177e-016 -3.18055e-015 49.269 -11.9145 -4.41859 42.3857 -39.33 16.9066 -32.5579 -18.4369 36.269 -2.62584 -9.33185 31.7042 -3.97569e-016 -7.95139e-016 -3.18055e-015 1.98785e-016 -7.95139e-016 -3.18055e-015 3.97569e-016 0 -1.59028e-015 -3.97569e-016 -7.95139e-016 -3.18055e-015 0.0149967 -9.08068e-005 3.57765e-007 1.98785e-016 0 3.18055e-015 -3.97569e-016 -7.95139e-016 -3.18055e-015 0.0189932 -0.00119077 -5.91947e-005 6.62086e-032 -2.38542e-015 1.59028e-015 -3.97569e-016 -7.95139e-016 -3.18055e-015 0.0122622 -0.00324572 -0.000676257 -5.96354e-016 -2.38542e-015 1.59028e-015 -3.97569e-016 -7.95139e-016 -3.18055e-015 1.98785e-016 -7.95139e-016 -3.18055e-015 3.97569e-016 0 -1.59028e-015 -4.95538 7.57696 -47.2093 7.03924 17.2565 -22.1611 -9.07904 43.2963 2.83371 1.01924e-005 -4.69884e-006 5.59661e-006 2.13037 12.6684 46.9303 -5.41973 3.2462 20.8469 7.84767 40.8324 -6.55369 -8.88552e-007 1.10959e-006 1.17404e-006 
39.7191 -5.71603 50.9704 0 77.3325 -0 -0.398108 2.00941 -0.200491 -0.789903 4.02018 -0.387355 -0.789902 4.02016 -0.387355 -0.00262063 -1.05971 -44.0017 -1.44832 -16.2568 -29.2058 -5.46524 5.39493 -6.15948 -33.9176 -45.9541 -11.5347 35.4269 -17.7683 -44.7421 16.552 -29.6606 -25.1827 -6.35051e-009 8.53858e-008 3.62671e-006 3.37476e-008 1.47096e-007 -1.69704e-009 -6.35052e-009 8.53858e-008 3.62671e-006 -6.35051e-009 8.53858e-008 3.62671e-006 -0.0146111 -8.85925e-005 1.80132e-006 -5.60978e-009 8.49278e-008 3.62672e-006 -6.35051e-009 8.53858e-008 3.62671e-006 -0.0187555 -0.00117577 6.81774e-005 5.20605e-009 5.61474e-008 2.1595e-006 -6.35051e-009 8.53858e-008 3.62671e-006 -0.0122488 -0.00324351 0.000667698 5.77993e-009 5.61001e-008 2.15954e-006 -6.35051e-009 8.53858e-008 3.62671e-006 3.37476e-008 1.47096e-007 -1.69704e-009 -6.35052e-009 8.53858e-008 3.62671e-006 49.0322 -12.4537 -2.09669 40.8047 -39.079 14.9879 -32.1138 -17.9806 35.9636 -3.90013 -10.8389 31.3051 -1.98785e-016 -7.95139e-016 -1.59028e-015 -3.97569e-016 0 -3.18055e-015 -3.97569e-016 0 -3.18055e-015 -1.98785e-016 -7.95139e-016 -1.59028e-015 0.0150081 -9.06143e-005 -8.84652e-007 3.97569e-016 7.95139e-016 1.59028e-015 -1.98785e-016 -7.95139e-016 -1.59028e-015 0.0189934 -0.00119053 -5.89563e-005 1.98785e-016 -1.59028e-015 -3.18055e-015 -1.98785e-016 -7.95139e-016 -1.59028e-015 0.0122535 -0.00324433 -0.000676777 1.98785e-016 0 -0 -1.98785e-016 -7.95139e-016 -1.59028e-015 -3.97569e-016 0 -3.18055e-015 -3.97569e-016 0 -3.18055e-015 -5.12586 8.45573 -48.8823 7.03808 17.2263 -22.2414 -11.1985 43.0517 5.36014 -7.06351e-006 1.25411e-006 4.24985e-006 2.21154 13.3146 47.1797 -5.68503 3.19548 20.8782 8.26059 40.813 -6.97319 -1.27414e-006 6.08126e-006 4.39825e-006 
